<svg xmlns="http://www.w3.org/2000/svg" xmlns:xlink="http://www.w3.org/1999/xlink" width="500" zoomAndPan="magnify" viewBox="0 0 375 374.999991" height="500" preserveAspectRatio="xMidYMid meet" version="1.0"><defs><clipPath id="f28f053893"><path d="M 17.527344 38.542969 L 217 38.542969 L 217 180 L 17.527344 180 Z M 17.527344 38.542969 " clip-rule="nonzero"/></clipPath><clipPath id="cfe11eedc2"><path d="M 17.527344 195 L 217 195 L 217 336.292969 L 17.527344 336.292969 Z M 17.527344 195 " clip-rule="nonzero"/></clipPath><clipPath id="7ffc99af77"><path d="M 154 38.542969 L 357.277344 38.542969 L 357.277344 336.292969 L 154 336.292969 Z M 154 38.542969 " clip-rule="nonzero"/></clipPath></defs><rect x="-37.5" width="450" fill="#ffffff" y="-37.499999" height="449.999989" fill-opacity="1"/><rect x="-37.5" width="450" fill="#ffffff" y="-37.499999" height="449.999989" fill-opacity="1"/><g clip-path="url(#f28f053893)"><path fill="#5ce1e6" d="M 149.628906 179.332031 C 149.691406 179.332031 149.726562 179.253906 149.6875 179.207031 C 142.476562 170.871094 138.117188 160.023438 138.117188 148.167969 C 138.117188 122.253906 158.976562 101.117188 184.785156 100.671875 C 184.902344 100.664062 185.015625 100.664062 185.132812 100.664062 C 201.703125 100.664062 215.296875 87.667969 216.238281 71.328125 C 217.292969 53.203125 202.632812 38.339844 184.480469 38.339844 L 99.058594 38.339844 C 99.027344 38.339844 99.007812 38.355469 98.996094 38.375 L 17.675781 179.21875 C 17.648438 179.269531 17.679688 179.332031 17.738281 179.332031 Z M 149.628906 179.332031 " fill-opacity="1" fill-rule="nonzero"/></g><g clip-path="url(#cfe11eedc2)"><path fill="#5ce1e6" d="M 149.796875 336.660156 C 142.523438 328.3125 138.117188 317.410156 138.117188 305.5 C 138.117188 279.304688 159.425781 257.996094 185.617188 257.996094 C 202.804688 257.996094 216.78125 244.019531 216.78125 226.832031 C 216.78125 209.648438 202.804688 195.671875 185.617188 195.671875 L 17.613281 195.671875 L 99.015625 336.660156 Z M 149.796875 336.660156 " fill-opacity="1" fill-rule="nonzero"/></g><g clip-path="url(#7ffc99af77)"><path fill="#000000" d="M 185.964844 117 C 185.847656 117.007812 185.734375 117.007812 185.617188 117.007812 C 168.433594 117.007812 154.457031 130.980469 154.457031 148.167969 C 154.457031 165.355469 168.433594 179.332031 185.617188 179.332031 C 195.46875 179.332031 204.628906 182.347656 212.226562 187.503906 C 224.824219 196.050781 233.121094 210.492188 233.121094 226.839844 C 233.121094 253.03125 211.808594 274.34375 185.617188 274.34375 C 168.433594 274.34375 154.457031 288.320312 154.457031 305.503906 C 154.457031 322.691406 168.433594 336.667969 185.617188 336.667969 L 271.242188 336.667969 L 357.359375 187.503906 L 277.71875 49.550781 L 271.25 38.339844 L 220.953125 38.339844 C 228.226562 46.6875 232.636719 57.59375 232.636719 69.503906 C 232.636719 95.417969 211.773438 116.554688 185.964844 117 Z M 185.964844 117 " fill-opacity="1" fill-rule="nonzero"/></g></svg>